{"title":"Payanam (2011) Tamil 1CD TC Rip XviD MP3@Mastitorrents","uid":6175662,"size":733910806,"categoryP":"video","categoryS":"movies","magnet":"?xt=urn:btih:fba2b447bf0a7ae6834db63fa2a7a17e6a239798&amp;dn=Payanam+%282011%29+Tamil+1CD+TC+Rip+XviD+MP3%40Mastitorrents&amp;tr=udp%3A%2F%2Ftracker.openbittorrent.com%3A80&amp;tr=udp%3A%2F%2Fopen.demonii.com%3A1337&amp;tr=udp%3A%2F%2Ftracker.coppersurfer.tk%3A6969&amp;tr=udp%3A%2F%2Fexodus.desync.com%3A6969","seeders":0,"leechers":1,"uploader":"amanrulz","files":2,"time":1297762793,"description":"mastitorrents.com\n &lt;a href=&quot;\nhttp://mastitorrents.com/forums/index.php&quot; rel=&quot;nofollow&quot; target=&quot;_NEW&quot;&gt;\nhttp://mastitorrents.com/forums/index.php&lt;/a&gt;\n\nFormat : AVI\nFormat/Info : Audio Video Interleave\nFormat profile : OpenDML\nFile size : 699 MiB\nOverall bit rate : 672 Kbps\nWriting application : AVI-Mux GUI 1.17.8.3, Feb 16 201019:42:50\n\nVideo\nID : 0\nFormat : MPEG-4 Visual\nFormat profile : Advanced Simple@L5\nFormat settings, BVOP : Yes\nFormat settings, QPel : No\nFormat settings, GMC : No warppoints\nFormat settings, Matrix : Default (H.263)\nCodec ID : XVID\nCodec ID/Hint : XviD\nBit rate : 602 Kbps\nWidth : 608 pixels\nHeight : 272 pixels\nDisplay aspect ratio : 2.25:1\nFrame rate : 29.970 fps\nColor space : YUV\nChroma subsampling : 4:2:0\nBit depth : 8 bits\nScan type : Progressive\nBits/(Pixel*Frame) : 0.121\nStream size : 621 MiB (90%)\nWriting library : XviD 1.2.1 (UTC 2008-12-04)\n\nAudio\nID : 1\nFormat : MPEG Audio\nFormat version : Version 1\nFormat profile : Layer 3\nCodec ID : 55\nCodec ID/Hint : MP3\nBit rate mode : Variable\nBit rate : 60.3 Kbps\nNominal bit rate : 64.0 Kbps\nChannel(s) : 1 channel\nSampling rate : 48.0 KHz\nStream size : 62.1 MiB (9%)\nAlignment : Aligned on interleaves\nInterleave, duration : 24 ms (0.72 video frame)","torrent":{"xt":"urn:btih:fba2b447bf0a7ae6834db63fa2a7a17e6a239798","amp;dn":"Payanam+%282011%29+Tamil+1CD+TC+Rip+XviD+MP3%40Mastitorrents","amp;tr":["udp%3A%2F%2Ftracker.openbittorrent.com%3A80","udp%3A%2F%2Fopen.demonii.com%3A1337","udp%3A%2F%2Ftracker.coppersurfer.tk%3A6969","udp%3A%2F%2Fexodus.desync.com%3A6969"],"infoHash":"fba2b447bf0a7ae6834db63fa2a7a17e6a239798","infoHashBuffer":{"type":"Buffer","data":[251,162,180,71,191,10,122,230,131,77,182,63,162,167,161,126,106,35,151,152]},"announce":[],"urlList":[]}}